<?xml version="1.0" encoding="UTF-8" standalone="no"?>
<svg
   xmlns:dc="http://purl.org/dc/elements/1.1/"
   xmlns:cc="http://creativecommons.org/ns#"
   xmlns:rdf="http://www.w3.org/1999/02/22-rdf-syntax-ns#"
   xmlns:svg="http://www.w3.org/2000/svg"
   xmlns="http://www.w3.org/2000/svg"
   xmlns:sodipodi="http://sodipodi.sourceforge.net/DTD/sodipodi-0.dtd"
   xmlns:inkscape="http://www.inkscape.org/namespaces/inkscape"
   version="1.1"
   width="152.5"
   height="42"
   id="svg2"
   inkscape:version="0.48.4 r9939"
   sodipodi:docname="box.svg">
  <metadata
     id="metadata12">
    <rdf:RDF>
      <cc:Work
         rdf:about="">
        <dc:format>image/svg+xml</dc:format>
        <dc:type
           rdf:resource="http://purl.org/dc/dcmitype/StillImage" />
      </cc:Work>
    </rdf:RDF>
  </metadata>
  <defs
     id="defs10" />
  <sodipodi:namedview
     pagecolor="#ffffff"
     bordercolor="#666666"
     borderopacity="1"
     objecttolerance="10"
     gridtolerance="10"
     guidetolerance="10"
     inkscape:pageopacity="0"
     inkscape:pageshadow="2"
     inkscape:window-width="1024"
     inkscape:window-height="513"
     id="namedview8"
     showgrid="false"
     inkscape:zoom="1"
     inkscape:cx="64.631108"
     inkscape:cy="22.499848"
     inkscape:window-x="0"
     inkscape:window-y="27"
     inkscape:window-maximized="1"
     inkscape:current-layer="g3007" />
  <g
     id="g3007">
    <g
       id="g3016">
      <g
         transform="matrix(2,0,0,2,74.5,0)"
         id="g3001">
        <path
           inkscape:connector-curvature="0"
           d="m 8.5,0.5 30,0 0,20 -30,0 0,-8 0,-1 -6,0 0,3 -2,0 0,-8 2,0 0,3 6,0 0,-1 z"
           style="fill:#00ff00;fill-opacity:1;stroke:#00a000;stroke-width:1;stroke-linecap:round;stroke-opacity:1"
           id="path3003" />
      </g>
      <g
         id="g2997"
         transform="matrix(2,0,0,2,42.5,0)">
        <path
           id="path2999"
           style="fill:#00ff00;fill-opacity:1;stroke:#00a000;stroke-width:1;stroke-linecap:round;stroke-opacity:1"
           d="m 8.5,0.5 30,0 0,20 -30,0 0,-8 0,-1 -6,0 0,3 -2,0 0,-8 2,0 0,3 6,0 0,-1 z"
           inkscape:connector-curvature="0" />
      </g>
      <g
         transform="scale(2,2)"
         id="g4">
        <path
           d="m 8.5,0.5 30,0 0,20 -30,0 0,-8 0,-1 -6,0 0,3 -2,0 0,-8 2,0 0,3 6,0 0,-1 z"
           style="fill:#00ff00;fill-opacity:1;stroke:#00a000;stroke-width:1;stroke-linecap:round;stroke-opacity:1"
           id="path6"
           inkscape:connector-curvature="0" />
      </g>
      <rect
         style="fill:#00ff00;fill-opacity:1;fill-rule:evenodd;stroke:none"
         id="rect3005"
         width="121.97592"
         height="38.006996"
         x="28.284273"
         y="2.0484667" />
    </g>
  </g>
</svg>
