<?xml version="1.0" encoding="UTF-8" standalone="no"?>
<!-- Created with Inkscape (http://www.inkscape.org/) -->

<svg
   xmlns:dc="http://purl.org/dc/elements/1.1/"
   xmlns:cc="http://creativecommons.org/ns#"
   xmlns:rdf="http://www.w3.org/1999/02/22-rdf-syntax-ns#"
   xmlns:svg="http://www.w3.org/2000/svg"
   xmlns="http://www.w3.org/2000/svg"
   version="1.1"
   width="152.5"
   height="42"
   id="svg2">
  <metadata
     id="metadata12">
    <rdf:RDF>
      <cc:Work
         rdf:about="">
        <dc:format>image/svg+xml</dc:format>
        <dc:type
           rdf:resource="http://purl.org/dc/dcmitype/StillImage" />
        <dc:title></dc:title>
      </cc:Work>
    </rdf:RDF>
  </metadata>
  <defs
     id="defs10" />
  <g
     id="g3007">
    <g
       id="g3016">
      <g
         transform="matrix(2,0,0,2,74.5,0)"
         id="g3001">
        <path
           d="m 8.5,0.5 30,0 0,20 -30,0 0,-8 0,-1 -6,0 0,3 -2,0 0,-8 2,0 0,3 6,0 0,-1 z"
           id="path3003"
           style="fill:#00ff00;fill-opacity:1;stroke:#00a000;stroke-width:1;stroke-linecap:round;stroke-opacity:1" />
      </g>
      <g
         transform="matrix(2,0,0,2,42.5,0)"
         id="g2997">
        <path
           d="m 8.5,0.5 30,0 0,20 -30,0 0,-8 0,-1 -6,0 0,3 -2,0 0,-8 2,0 0,3 6,0 0,-1 z"
           id="path2999"
           style="fill:#00ff00;fill-opacity:1;stroke:#00a000;stroke-width:1;stroke-linecap:round;stroke-opacity:1" />
      </g>
      <g
         transform="scale(2,2)"
         id="g4">
        <path
           d="m 8.5,0.5 30,0 0,20 -30,0 0,-8 0,-1 -6,0 0,3 -2,0 0,-8 2,0 0,3 6,0 0,-1 z"
           id="path6"
           style="fill:#00ff00;fill-opacity:1;stroke:#00a000;stroke-width:1;stroke-linecap:round;stroke-opacity:1" />
      </g>
      <rect
         width="121.97592"
         height="38.006996"
         x="28.284273"
         y="2.0484667"
         id="rect3005"
         style="fill:#00ff00;fill-opacity:1;fill-rule:evenodd;stroke:none" />
    </g>
  </g>
</svg>
